<?xml version="1.0" encoding="UTF-8"?><svg id="Layer_1" xmlns="http://www.w3.org/2000/svg" viewBox="0 0 432.2 432.2"><defs><style>.cls-1{fill:#bfb2ca;}</style></defs><path class="cls-1" d="M342.2,432.2H.2V.2c24,0,48,0,72,0,0,119.2,0,238.4,0,357.6,0,.4,0,.8,0,1.2-.1,.9,.3,1.3,1.2,1.2,.4,0,.7,0,1.1,0,88.7,0,177.4,0,266,0q1.7,0,1.7,1.7c0,23.4,0,46.9,0,70.3Z"/><path class="cls-1" d="M90.2,.2H432.2V432.2h-72V74.5c0-.4,0-.7,0-1.1,.1-.9-.2-1.3-1.2-1.2-.4,0-.8,0-1.2,0-88.6,0-177.3,0-265.9,0q-1.7,0-1.7-1.7c0-23.4,0-46.9,0-70.3Z"/><path class="cls-1" d="M216.2,90.2c41.4,0,82.8,0,124.2,0,2,0,1.8-.2,1.8,1.8,0,22.8,0,45.7,0,68.5q0,1.7-1.7,1.7c-58.6,0-117.2,0-175.8,0s-.6,0-1,0q-1.6,0-1.6,1.6c0,28.8,0,57.6,0,86.4,0,2.3,.3,2-2,2-22.8,0-45.5,0-68.3,0q-1.7,0-1.7-1.7c0-52.9,0-105.8,0-158.6q0-1.7,1.7-1.7c41.4,0,82.9,0,124.3,0Z"/><path class="cls-1" d="M216.1,342.2c-41.4,0-82.7,0-124.1,0-2,0-1.8,.2-1.8-1.8,0-22.8,0-45.7,0-68.5q0-1.7,1.7-1.7c58.6,0,117.2,0,175.8,0s.6,0,1,0q1.6,0,1.6-1.6c0-28.8,0-57.6,0-86.4,0-2.3-.3-2,2-2,22.8,0,45.5,0,68.3,0q1.7,0,1.7,1.7c0,52.9,0,105.8,0,158.6q0,1.7-1.7,1.7c-41.5,0-83,0-124.4,0Z"/></svg>